<?xml version="1.0" ?>
<!-- Uploaded to: SVG Repo, www.svgrepo.com, Generator: SVG Repo Mixer Tools -->
<svg fill="#000000" width="800px" height="800px" viewBox="0 0 64 64" version="1.1" xml:space="preserve" xmlns="http://www.w3.org/2000/svg" xmlns:xlink="http://www.w3.org/1999/xlink">
<g id="cctv"/>
<g id="smartlamp"/>
<g id="headphone"/>
<g id="headset"/>
<g id="mouse"/>
<g id="wireless_chip"/>
<g id="gamepad"/>
<g id="wireless_charge"/>
<g id="camera"/>
<g id="printer"/>
<g id="laptop"/>
<g id="smartphone"/>
<g id="smartwatch"/>
<g id="speaker">
<g>
<path d="M28,19H6c-1.7,0-3,1.3-3,3v36c0,1.7,1.3,3,3,3h22c1.7,0,3-1.3,3-3V22C31,20.3,29.7,19,28,19z M29,58c0,0.6-0.4,1-1,1H6    c-0.6,0-1-0.4-1-1V22c0-0.6,0.4-1,1-1h22c0.6,0,1,0.4,1,1V58z"/>
<path d="M17,37c-5.5,0-10,4.5-10,10s4.5,10,10,10s10-4.5,10-10S22.5,37,17,37z M17,55c-4.4,0-8-3.6-8-8s3.6-8,8-8s8,3.6,8,8    S21.4,55,17,55z"/>
<path d="M17,41c-3.3,0-6,2.7-6,6s2.7,6,6,6s6-2.7,6-6S20.3,41,17,41z M17,51c-2.2,0-4-1.8-4-4s1.8-4,4-4s4,1.8,4,4S19.2,51,17,51z    "/>
<path d="M17,35c3.3,0,6-2.7,6-6s-2.7-6-6-6s-6,2.7-6,6S13.7,35,17,35z M17,25c2.2,0,4,1.8,4,4s-1.8,4-4,4s-4-1.8-4-4    S14.8,25,17,25z"/>
<circle cx="17" cy="29" r="2"/>
<path d="M58,19H36c-1.7,0-3,1.3-3,3v36c0,1.7,1.3,3,3,3h22c1.7,0,3-1.3,3-3V22C61,20.3,59.7,19,58,19z M59,58c0,0.6-0.4,1-1,1H36    c-0.6,0-1-0.4-1-1V22c0-0.6,0.4-1,1-1h22c0.6,0,1,0.4,1,1V58z"/>
<path d="M47,37c-5.5,0-10,4.5-10,10s4.5,10,10,10s10-4.5,10-10S52.5,37,47,37z M47,55c-4.4,0-8-3.6-8-8s3.6-8,8-8s8,3.6,8,8    S51.4,55,47,55z"/>
<path d="M47,41c-3.3,0-6,2.7-6,6s2.7,6,6,6s6-2.7,6-6S50.3,41,47,41z M47,51c-2.2,0-4-1.8-4-4s1.8-4,4-4s4,1.8,4,4S49.2,51,47,51z    "/>
<path d="M47,35c3.3,0,6-2.7,6-6s-2.7-6-6-6s-6,2.7-6,6S43.7,35,47,35z M47,25c2.2,0,4,1.8,4,4s-1.8,4-4,4s-4-1.8-4-4    S44.8,25,47,25z"/>
<circle cx="47" cy="29" r="2"/>
<path d="M37.4,18c0.4,0,0.7-0.2,0.9-0.5c0.3-0.5,0.1-1.1-0.4-1.4c-3.8-2.1-8-2.1-11.7,0c-0.5,0.3-0.7,0.9-0.4,1.4    c0.3,0.5,0.9,0.7,1.4,0.4c3.2-1.8,6.6-1.8,9.8,0C37,18,37.2,18,37.4,18z"/>
<path d="M23.2,11.6c-0.5,0.3-0.6,0.9-0.3,1.4c0.3,0.5,0.9,0.6,1.4,0.3c2.4-1.7,5-2.5,7.6-2.5s5.3,0.8,7.6,2.5    c0.2,0.1,0.4,0.2,0.6,0.2c0.3,0,0.6-0.1,0.8-0.4c0.3-0.5,0.2-1.1-0.3-1.4c-2.7-1.9-5.7-2.9-8.8-2.9S25.9,9.7,23.2,11.6z"/>
<path d="M21.6,8.7C24.8,6.3,28.4,5,32,5s7.2,1.3,10.4,3.7c0.2,0.1,0.4,0.2,0.6,0.2c0.3,0,0.6-0.1,0.8-0.4c0.3-0.4,0.3-1.1-0.2-1.4    C40.1,4.4,36.1,3,32,3s-8.1,1.4-11.6,4.2c-0.4,0.3-0.5,1-0.2,1.4C20.5,9,21.2,9.1,21.6,8.7z"/>
</g>
</g>
<g id="drone"/>
<g id="smart_plug"/>
<g id="router"/>
<g id="smart_lock"/>
<g id="air_conditioner"/>
<g id="smartglasses"/>
</svg>