<?xml version="1.0" ?>
<!-- Uploaded to: SVG Repo, www.svgrepo.com, Generator: SVG Repo Mixer Tools -->
<svg fill="#000000" width="800px" height="800px" viewBox="0 0 64 64" version="1.1" xml:space="preserve" xmlns="http://www.w3.org/2000/svg" xmlns:xlink="http://www.w3.org/1999/xlink">
<g id="cctv"/>
<g id="smartlamp"/>
<g id="headphone"/>
<g id="headset"/>
<g id="mouse"/>
<g id="wireless_chip"/>
<g id="gamepad"/>
<g id="wireless_charge"/>
<g id="camera"/>
<g id="printer"/>
<g id="laptop"/>
<g id="smartphone"/>
<g id="smartwatch"/>
<g id="speaker"/>
<g id="drone"/>
<g id="smart_plug"/>
<g id="router">
<g>
<path d="M53,38.1V19c0-1.3-0.8-2.4-2-2.8v-4.4c1.2-0.4,2-1.5,2-2.8c0-1.7-1.3-3-3-3s-3,1.3-3,3c0,1.3,0.8,2.4,2,2.8v4.4    c-1.2,0.4-2,1.5-2,2.8v19H17V19c0-1.3-0.8-2.4-2-2.8v-4.4c1.2-0.4,2-1.5,2-2.8c0-1.7-1.3-3-3-3s-3,1.3-3,3c0,1.3,0.8,2.4,2,2.8    v4.4c-1.2,0.4-2,1.5-2,2.8v19.1c-4.5,0.5-8,4.3-8,8.9v6c0,0.6,0.4,1,1,1h2v3c0,0.6,0.4,1,1,1h50c0.6,0,1-0.4,1-1v-3h2    c0.6,0,1-0.4,1-1v-6C61,42.4,57.5,38.6,53,38.1z M50,8c0.6,0,1,0.4,1,1s-0.4,1-1,1s-1-0.4-1-1S49.4,8,50,8z M49,19    c0-0.6,0.4-1,1-1s1,0.4,1,1v19h-2V19z M14,8c0.6,0,1,0.4,1,1s-0.4,1-1,1s-1-0.4-1-1S13.4,8,14,8z M13,19c0-0.6,0.4-1,1-1    s1,0.4,1,1v19h-2V19z M56,56H8v-2h48V56z M59,52h-2H7H5v-5c0-3.9,3.1-7,7-7h4h32h4c3.9,0,7,3.1,7,7V52z"/>
<path d="M14,43c-1.7,0-3,1.3-3,3s1.3,3,3,3s3-1.3,3-3S15.7,43,14,43z M14,47c-0.6,0-1-0.4-1-1s0.4-1,1-1s1,0.4,1,1S14.6,47,14,47z    "/>
<path d="M23,43c-1.7,0-3,1.3-3,3s1.3,3,3,3s3-1.3,3-3S24.7,43,23,43z M23,47c-0.6,0-1-0.4-1-1s0.4-1,1-1s1,0.4,1,1S23.6,47,23,47z    "/>
<path d="M32,43c-1.7,0-3,1.3-3,3s1.3,3,3,3s3-1.3,3-3S33.7,43,32,43z M32,47c-0.6,0-1-0.4-1-1s0.4-1,1-1s1,0.4,1,1S32.6,47,32,47z    "/>
<path d="M41,43c-1.7,0-3,1.3-3,3s1.3,3,3,3s3-1.3,3-3S42.7,43,41,43z M41,47c-0.6,0-1-0.4-1-1s0.4-1,1-1s1,0.4,1,1S41.6,47,41,47z    "/>
<path d="M50,43c-1.7,0-3,1.3-3,3s1.3,3,3,3s3-1.3,3-3S51.7,43,50,43z M50,47c-0.6,0-1-0.4-1-1s0.4-1,1-1s1,0.4,1,1S50.6,47,50,47z    "/>
<path d="M29,32c0,1.7,1.3,3,3,3s3-1.3,3-3s-1.3-3-3-3S29,30.3,29,32z M33,32c0,0.6-0.4,1-1,1s-1-0.4-1-1s0.4-1,1-1S33,31.4,33,32z    "/>
<path d="M36.1,28.6c0.3,0,0.5-0.1,0.7-0.3c0.4-0.4,0.4-1,0-1.4c-1.3-1.2-3-1.9-4.7-1.9s-3.5,0.7-4.7,1.9c-0.4,0.4-0.4,1,0,1.4    c0.4,0.4,1,0.4,1.4,0c0.9-0.9,2.1-1.3,3.4-1.3s2.5,0.5,3.4,1.3C35.6,28.5,35.8,28.6,36.1,28.6z"/>
<path d="M38.8,25.7c0.3,0,0.5-0.1,0.7-0.3c0.4-0.4,0.4-1-0.1-1.4C37.4,22,34.8,21,32,21s-5.4,1-7.5,2.9c-0.4,0.4-0.4,1-0.1,1.4    c0.4,0.4,1,0.4,1.4,0.1c1.7-1.5,3.8-2.4,6.1-2.4s4.4,0.9,6.1,2.4C38.3,25.6,38.5,25.7,38.8,25.7z"/>
<path d="M23.2,22.5c2.4-2.2,5.5-3.5,8.8-3.5s6.4,1.2,8.8,3.5c0.2,0.2,0.4,0.3,0.7,0.3c0.3,0,0.5-0.1,0.7-0.3    c0.4-0.4,0.4-1-0.1-1.4c-2.8-2.6-6.4-4-10.2-4s-7.4,1.4-10.2,4c-0.4,0.4-0.4,1-0.1,1.4C22.2,22.8,22.8,22.8,23.2,22.5z"/>
</g>
</g>
<g id="smart_lock"/>
<g id="air_conditioner"/>
<g id="smartglasses"/>
</svg>