<?xml version="1.0" ?>
<!-- Uploaded to: SVG Repo, www.svgrepo.com, Generator: SVG Repo Mixer Tools -->
<svg fill="#000000" width="800px" height="800px" viewBox="0 0 64 64" version="1.1" xml:space="preserve" xmlns="http://www.w3.org/2000/svg" xmlns:xlink="http://www.w3.org/1999/xlink">
<g id="cctv"/>
<g id="smartlamp"/>
<g id="headphone"/>
<g id="headset"/>
<g id="mouse"/>
<g id="wireless_chip"/>
<g id="gamepad"/>
<g id="wireless_charge"/>
<g id="camera"/>
<g id="printer">
<g>
<path d="M56,17h-2V8c0-1.7-1.3-3-3-3H13c-1.7,0-3,1.3-3,3v9H8c-2.8,0-5,2.2-5,5v26c0,2.8,2.2,5,5,5h6v5c0,1.7,1.3,3,3,3h30    c1.7,0,3-1.3,3-3v-5h6c2.8,0,5-2.2,5-5V22C61,19.2,58.8,17,56,17z M12,8c0-0.6,0.4-1,1-1h38c0.6,0,1,0.4,1,1v9H12V8z M48,58    c0,0.6-0.4,1-1,1H17c-0.6,0-1-0.4-1-1v-6v-3h32v3V58z M59,48c0,1.7-1.3,3-3,3h-6v-3c0-0.6-0.4-1-1-1H15c-0.6,0-1,0.4-1,1v3H8    c-1.7,0-3-1.3-3-3V22c0-1.7,1.3-3,3-3h3h42h3c1.7,0,3,1.3,3,3V48z"/>
<path d="M11,22c-1.7,0-3,1.3-3,3s1.3,3,3,3s3-1.3,3-3S12.7,22,11,22z M11,26c-0.6,0-1-0.4-1-1s0.4-1,1-1s1,0.4,1,1S11.6,26,11,26z    "/>
<path d="M19,22c-1.7,0-3,1.3-3,3s1.3,3,3,3s3-1.3,3-3S20.7,22,19,22z M19,26c-0.6,0-1-0.4-1-1s0.4-1,1-1s1,0.4,1,1S19.6,26,19,26z    "/>
<path d="M27,22c-1.7,0-3,1.3-3,3s1.3,3,3,3s3-1.3,3-3S28.7,22,27,22z M27,26c-0.6,0-1-0.4-1-1s0.4-1,1-1s1,0.4,1,1S27.6,26,27,26z    "/>
</g>
</g>
<g id="laptop"/>
<g id="smartphone"/>
<g id="smartwatch"/>
<g id="speaker"/>
<g id="drone"/>
<g id="smart_plug"/>
<g id="router"/>
<g id="smart_lock"/>
<g id="air_conditioner"/>
<g id="smartglasses"/>
</svg>