<?xml version="1.0" ?>
<!-- Uploaded to: SVG Repo, www.svgrepo.com, Generator: SVG Repo Mixer Tools -->
<svg fill="#000000" width="800px" height="800px" viewBox="0 0 64 64" version="1.1" xml:space="preserve" xmlns="http://www.w3.org/2000/svg" xmlns:xlink="http://www.w3.org/1999/xlink">
<g id="cctv"/>
<g id="smartlamp"/>
<g id="headphone"/>
<g id="headset"/>
<g id="mouse"/>
<g id="wireless_chip"/>
<g id="gamepad"/>
<g id="wireless_charge"/>
<g id="camera"/>
<g id="printer"/>
<g id="laptop"/>
<g id="smartphone"/>
<g id="smartwatch"/>
<g id="speaker"/>
<g id="drone"/>
<g id="smart_plug"/>
<g id="router"/>
<g id="smart_lock"/>
<g id="air_conditioner"/>
<g id="smartglasses">
<path d="M60.9,29.7C60.9,29.6,60.9,29.6,60.9,29.7c-0.1-0.2-0.1-0.3-0.2-0.3c0,0,0,0,0,0L43.4,11.8c-0.9-0.9-2.2-1.1-3.3-0.4   l-4.8,2.7c-1.1,0.6-1.6,2-1.2,3.2c0.2,0.7,0.8,1.3,1.4,1.6c0.7,0.3,1.5,0.3,2.1,0.1l2.2-0.9c0.3-0.1,0.6,0,0.8,0.2l7.1,8.7H16.2   l7.1-8.7c0.2-0.2,0.5-0.3,0.8-0.2l2.2,0.9c0.7,0.3,1.5,0.3,2.1-0.1c0.7-0.3,1.2-0.9,1.4-1.6c0.4-1.2-0.1-2.6-1.2-3.2l-4.8-2.7   c-1.1-0.6-2.4-0.4-3.3,0.4L3.3,29.3c0,0,0,0,0,0c-0.1,0.1-0.1,0.2-0.2,0.2c0,0,0,0.1,0,0.1C3,29.8,3,29.9,3,30v20   c0,0.4,0.2,0.7,0.6,0.9l4,2c0,0,0,0,0,0C7.7,53,7.8,53,8,53h19c0.4,0,0.7-0.2,0.9-0.6l1.7-3.4h4.8l1.7,3.4c0.2,0.3,0.5,0.6,0.9,0.6   h19c0.2,0,0.3,0,0.4-0.1c0,0,0,0,0,0l4-2c0.3-0.2,0.6-0.5,0.6-0.9V30C61,29.9,61,29.8,60.9,29.7z M42.3,17c-0.8-0.9-2-1.3-3.1-0.8   L37,17.1c-0.2,0.1-0.4,0.1-0.5,0c-0.2-0.1-0.3-0.2-0.4-0.4c-0.1-0.3,0-0.7,0.3-0.9l4.8-2.7c0.3-0.2,0.6-0.1,0.8,0.1L55.6,27h-5.3   L42.3,17z M22,13.2c0.2-0.2,0.6-0.3,0.8-0.1l4.8,2.7c0.3,0.2,0.4,0.5,0.3,0.9c-0.1,0.2-0.2,0.3-0.4,0.4c-0.2,0.1-0.4,0.1-0.5,0   l-2.2-0.9c-1.1-0.4-2.4-0.1-3.1,0.8l-8.1,10H8.4L22,13.2z M5,30.6l2-1v20.8l-2-1V30.6z M35.9,47.6C35.7,47.2,35.4,47,35,47h-6   c-0.4,0-0.7,0.2-0.9,0.6L26.4,51H9V29h46v22H37.6L35.9,47.6z M59,49.4l-2,1V29.6l2,1V49.4z"/>
</g>
</svg>