<?xml version="1.0" ?>
<!-- Uploaded to: SVG Repo, www.svgrepo.com, Generator: SVG Repo Mixer Tools -->
<svg fill="#000000" width="800px" height="800px" viewBox="0 0 64 64" version="1.1" xml:space="preserve" xmlns="http://www.w3.org/2000/svg" xmlns:xlink="http://www.w3.org/1999/xlink">
<g id="cctv"/>
<g id="smartlamp"/>
<g id="headphone"/>
<g id="headset"/>
<g id="mouse"/>
<g id="wireless_chip"/>
<g id="gamepad"/>
<g id="wireless_charge">
<g>
<path d="M58,32c0-7.1-2.9-13.9-8-18.8V7.9C50,5.2,47.8,3,45.1,3H18.9C16.2,3,14,5.2,14,7.9v5.3C8.9,18.1,6,24.9,6,32    s2.9,13.9,8,18.8v5.3c0,2.7,2.2,4.9,4.9,4.9h26.2c2.7,0,4.9-2.2,4.9-4.9v-5.3C55.1,45.9,58,39.1,58,32z M8,32    c0-5.9,2.2-11.5,6-15.9v31.7C10.2,43.5,8,37.9,8,32z M48,56.1c0,1.6-1.3,2.9-2.9,2.9H18.9c-1.6,0-2.9-1.3-2.9-2.9V7.9    C16,6.3,17.3,5,18.9,5h26.2C46.7,5,48,6.3,48,7.9V56.1z M50,16.1c3.8,4.4,6,10,6,15.9s-2.2,11.5-6,15.9V16.1z"/>
<path d="M38.9,27.6C38.7,27.2,38.4,27,38,27h-3.1l1.7-4.6c0.1-0.3,0.1-0.7-0.1-0.9c-0.2-0.3-0.5-0.4-0.8-0.4h-7.5    c-0.5,0-0.9,0.3-1,0.8l-2.3,10c-0.1,0.3,0,0.6,0.2,0.8c0.2,0.2,0.5,0.4,0.8,0.4h2.4l-2.6,8.7c-0.1,0.5,0.1,0.9,0.5,1.2    c0.1,0.1,0.3,0.1,0.5,0.1c0.3,0,0.6-0.1,0.8-0.4l11.3-14C39,28.3,39.1,27.9,38.9,27.6z M29.2,37.4l1.5-5.1c0.1-0.3,0-0.6-0.2-0.9    c-0.2-0.3-0.5-0.4-0.8-0.4h-2.5l1.8-8h5.3l-1.7,4.6c-0.1,0.3-0.1,0.7,0.1,0.9c0.2,0.3,0.5,0.4,0.8,0.4h2.4L29.2,37.4z"/>
<path d="M36.8,44.1c-3.1,1.2-6.6,1.2-9.7,0c-0.5-0.2-1.1,0-1.3,0.6c-0.2,0.5,0,1.1,0.6,1.3c1.8,0.7,3.7,1.1,5.6,1.1    s3.8-0.4,5.6-1.1c0.5-0.2,0.8-0.8,0.6-1.3C37.9,44.1,37.3,43.9,36.8,44.1z"/>
<path d="M27.2,19.9c3.1-1.2,6.6-1.2,9.7,0c0.1,0,0.2,0.1,0.4,0.1c0.4,0,0.8-0.2,0.9-0.6c0.2-0.5,0-1.1-0.6-1.3    c-3.6-1.4-7.6-1.4-11.1,0c-0.5,0.2-0.8,0.8-0.6,1.3C26.1,19.9,26.7,20.1,27.2,19.9z"/>
<path d="M23.6,49c2.6,1.3,5.4,2,8.4,2s5.8-0.7,8.4-2c0.5-0.2,0.7-0.8,0.5-1.3c-0.2-0.5-0.8-0.7-1.3-0.4C37.2,48.4,34.6,49,32,49    c-2.6,0-5.2-0.6-7.5-1.7c-0.5-0.2-1.1,0-1.3,0.4C22.9,48.2,23.1,48.8,23.6,49z"/>
<path d="M40.8,16.3c0.2-0.5,0-1.1-0.5-1.3c-2.6-1.3-5.4-2-8.4-2s-5.8,0.7-8.4,2c-0.5,0.2-0.7,0.8-0.4,1.3c0.2,0.4,0.5,0.6,0.9,0.6    c0.1,0,0.3,0,0.4-0.1c2.3-1.2,4.8-1.7,7.5-1.7c2.6,0,5.2,0.6,7.5,1.7C40,17,40.6,16.8,40.8,16.3z"/>
<path d="M42.1,50.4C39.1,52.1,35.6,53,32,53c-3.6,0-7.1-0.9-10.1-2.6c-0.5-0.3-1.1-0.1-1.4,0.4c-0.3,0.5-0.1,1.1,0.4,1.4    C24.3,54,28.1,55,32,55c3.9,0,7.7-1,11.1-2.9c0.5-0.3,0.7-0.9,0.4-1.4C43.2,50.3,42.6,50.1,42.1,50.4z"/>
<path d="M43.1,11.9C39.7,10,35.9,9,32,9c-3.9,0-7.7,1-11.1,2.9c-0.5,0.3-0.7,0.9-0.4,1.4c0.3,0.5,0.9,0.7,1.4,0.4    C24.9,11.9,28.4,11,32,11c3.6,0,7.1,0.9,10.1,2.6c0.2,0.1,0.3,0.1,0.5,0.1c0.4,0,0.7-0.2,0.9-0.5C43.8,12.7,43.6,12.1,43.1,11.9z"/>
</g>
</g>
<g id="camera"/>
<g id="printer"/>
<g id="laptop"/>
<g id="smartphone"/>
<g id="smartwatch"/>
<g id="speaker"/>
<g id="drone"/>
<g id="smart_plug"/>
<g id="router"/>
<g id="smart_lock"/>
<g id="air_conditioner"/>
<g id="smartglasses"/>
</svg>