<?xml version="1.0" ?>
<!-- Uploaded to: SVG Repo, www.svgrepo.com, Generator: SVG Repo Mixer Tools -->
<svg fill="#000000" width="800px" height="800px" viewBox="0 0 64 64" version="1.1" xml:space="preserve" xmlns="http://www.w3.org/2000/svg" xmlns:xlink="http://www.w3.org/1999/xlink">
<g id="cctv"/>
<g id="smartlamp"/>
<g id="headphone"/>
<g id="headset"/>
<g id="mouse"/>
<g id="wireless_chip"/>
<g id="gamepad"/>
<g id="wireless_charge"/>
<g id="camera"/>
<g id="printer"/>
<g id="laptop"/>
<g id="smartphone"/>
<g id="smartwatch"/>
<g id="speaker"/>
<g id="drone"/>
<g id="smart_plug"/>
<g id="router"/>
<g id="smart_lock">
<g>
<path d="M49,27h-2v-9c0-8.3-6.7-15-15-15c-8.3,0-15,6.7-15,15v9h-2c-1.7,0-3,1.3-3,3v28c0,1.7,1.3,3,3,3h34c1.7,0,3-1.3,3-3V30    C52,28.3,50.7,27,49,27z M19,18c0-7.2,5.8-13,13-13c7.2,0,13,5.8,13,13v9h-3v-9c0-5.5-4.5-10-10-10c-5.5,0-10,4.5-10,10v9h-3V18z     M40,27H24v-9c0-4.4,3.6-8,8-8s8,3.6,8,8V27z M50,58c0,0.6-0.4,1-1,1H15c-0.6,0-1-0.4-1-1V30c0-0.6,0.4-1,1-1h3h5h18h5h3    c0.6,0,1,0.4,1,1V58z"/>
<path d="M32,39c-1.8,0-3.5,0.7-4.7,1.9c-0.4,0.4-0.4,1,0,1.4c0.4,0.4,1,0.4,1.4,0c0.9-0.9,2.1-1.3,3.4-1.3c1.3,0,2.5,0.5,3.4,1.3    c0.2,0.2,0.4,0.3,0.7,0.3c0.3,0,0.5-0.1,0.7-0.3c0.4-0.4,0.4-1,0-1.4C35.5,39.7,33.8,39,32,39z"/>
<path d="M32,35c-2.8,0-5.4,1-7.5,2.9c-0.4,0.4-0.4,1-0.1,1.4c0.4,0.4,1,0.4,1.4,0.1c1.7-1.5,3.8-2.4,6.1-2.4    c2.3,0,4.4,0.9,6.1,2.4c0.2,0.2,0.4,0.3,0.7,0.3c0.3,0,0.5-0.1,0.7-0.3c0.4-0.4,0.4-1-0.1-1.4C37.4,36,34.8,35,32,35z"/>
<path d="M32,31c-3.8,0-7.4,1.4-10.2,4c-0.4,0.4-0.4,1-0.1,1.4c0.4,0.4,1,0.4,1.4,0.1c2.4-2.2,5.5-3.5,8.8-3.5s6.4,1.2,8.8,3.5    c0.2,0.2,0.4,0.3,0.7,0.3c0.3,0,0.5-0.1,0.7-0.3c0.4-0.4,0.3-1-0.1-1.4C39.4,32.4,35.8,31,32,31z"/>
<path d="M35.1,44.1c-1.2-1-2.8-1.3-4.3-0.9c-1.8,0.4-3.2,1.8-3.7,3.6c-0.5,2,0.2,4,1.8,5.2v2c0,1.7,1.3,3,3,3s3-1.3,3-3v-2    c1.2-0.9,2-2.4,2-4C37,46.5,36.3,45,35.1,44.1z M33.5,50.6c-0.3,0.2-0.5,0.5-0.5,0.9V54c0,0.6-0.4,1-1,1s-1-0.4-1-1v-2.6    c0-0.4-0.2-0.7-0.5-0.9c-1.2-0.7-1.7-2-1.4-3.3c0.3-1,1.1-1.9,2.2-2.1C31.5,45,31.8,45,32,45c0.7,0,1.3,0.2,1.9,0.7    c0.7,0.6,1.1,1.4,1.1,2.4C35,49.1,34.4,50,33.5,50.6z"/>
</g>
</g>
<g id="air_conditioner"/>
<g id="smartglasses"/>
</svg>