<?xml version="1.0" ?>
<!-- Uploaded to: SVG Repo, www.svgrepo.com, Generator: SVG Repo Mixer Tools -->
<svg fill="#000000" width="800px" height="800px" viewBox="0 0 64 64" version="1.1" xml:space="preserve" xmlns="http://www.w3.org/2000/svg" xmlns:xlink="http://www.w3.org/1999/xlink">
<g id="cctv"/>
<g id="smartlamp"/>
<g id="headphone"/>
<g id="headset">
<g>
<path d="M49,3h-4c-1.7,0-3,1.3-3,3v32.2l-1.2-1.4c-1.5-1.8-3.7-2.8-6-2.8c-4.3,0-7.8,3.5-7.8,7.8V54c0,3.9,3.1,7,7,7h5    c7.2,0,13-5.8,13-13V6C52,4.3,50.7,3,49,3z M45,5h4c0.6,0,1,0.4,1,1v5h-6V6C44,5.4,44.4,5,45,5z M39,59h-5c-2.8,0-5-2.2-5-5V41.8    c0-3.2,2.6-5.8,5.8-5.8c1.7,0,3.4,0.8,4.5,2.1l3,3.5c0.3,0.3,0.7,0.4,1.1,0.3c0.4-0.1,0.7-0.5,0.7-0.9V13h6v35    C50,54.1,45.1,59,39,59z"/>
<path d="M37,22.2V10c0-3.9-3.1-7-7-7h-5c-7.2,0-13,5.8-13,13v42c0,1.7,1.3,3,3,3h4c1.7,0,3-1.3,3-3V25.8l1.2,1.4    c1.5,1.8,3.7,2.8,6,2.8C33.5,30,37,26.5,37,22.2z M19,59h-4c-0.6,0-1-0.4-1-1v-5h6v5C20,58.6,19.6,59,19,59z M24.7,25.9l-3-3.5    c-0.3-0.3-0.7-0.4-1.1-0.3C20.3,22.2,20,22.6,20,23v28h-6V16c0-6.1,4.9-11,11-11h5c2.8,0,5,2.2,5,5v12.2c0,3.2-2.6,5.8-5.8,5.8    C27.5,28,25.8,27.2,24.7,25.9z"/>
</g>
</g>
<g id="mouse"/>
<g id="wireless_chip"/>
<g id="gamepad"/>
<g id="wireless_charge"/>
<g id="camera"/>
<g id="printer"/>
<g id="laptop"/>
<g id="smartphone"/>
<g id="smartwatch"/>
<g id="speaker"/>
<g id="drone"/>
<g id="smart_plug"/>
<g id="router"/>
<g id="smart_lock"/>
<g id="air_conditioner"/>
<g id="smartglasses"/>
</svg>