<?xml version="1.0" ?>
<!-- Uploaded to: SVG Repo, www.svgrepo.com, Generator: SVG Repo Mixer Tools -->
<svg fill="#000000" width="800px" height="800px" viewBox="0 0 64 64" version="1.1" xml:space="preserve" xmlns="http://www.w3.org/2000/svg" xmlns:xlink="http://www.w3.org/1999/xlink">
<g id="cctv"/>
<g id="smartlamp">
<g>
<path d="M31.2,8C22.3,8.4,15.2,15.7,15,24.5c-0.1,5.4,2.3,10.6,6.6,13.9c2.1,1.7,3.4,4.3,3.4,7.1V46c0,0.6,0.4,1,1,1v3    c-0.6,0-1,0.4-1,1s0.4,1,1,1v2c0,1.3,0.8,2.4,2,2.8V57c0,2.2,1.8,4,4,4s4-1.8,4-4v-0.2c1.2-0.4,2-1.5,2-2.8v-2c0.6,0,1-0.4,1-1    s-0.4-1-1-1v-3c0.6,0,1-0.4,1-1v-0.4c0-2.8,1.3-5.5,3.7-7.3C46.7,35,49,30.2,49,25c0-4.7-1.9-9.1-5.3-12.3    C40.3,9.5,35.9,7.8,31.2,8z M32,59c-1.1,0-2-0.9-2-2h4C34,58.1,33.1,59,32,59z M36,54c0,0.6-0.4,1-1,1h-6c-0.6,0-1-0.4-1-1v-2h8    V54z M36,50h-8v-3h8V50z M32,31c-0.6,0-1-0.4-1-1s0.4-1,1-1s1,0.4,1,1S32.6,31,32,31z M41.4,36.7c-2.6,2.1-4.2,5.1-4.4,8.3h0h-4    V32.8c1.2-0.4,2-1.5,2-2.8c0-1.7-1.3-3-3-3s-3,1.3-3,3c0,1.3,0.8,2.4,2,2.8V45h-4h0c-0.2-3.2-1.7-6.2-4.2-8.2    c-3.8-3-5.9-7.4-5.8-12.3c0.2-7.8,6.5-14.2,14.3-14.6c4.1-0.2,8.1,1.3,11.1,4.1C45.3,17,47,20.9,47,25C47,29.6,45,33.8,41.4,36.7z    "/>
<path d="M32,23c-1.8,0-3.5,0.7-4.7,1.9c-0.4,0.4-0.4,1,0,1.4c0.4,0.4,1,0.4,1.4,0c0.9-0.9,2.1-1.3,3.4-1.3s2.5,0.5,3.4,1.3    c0.2,0.2,0.4,0.3,0.7,0.3c0.3,0,0.5-0.1,0.7-0.3c0.4-0.4,0.4-1,0-1.4C35.5,23.7,33.8,23,32,23z"/>
<path d="M32,19c-2.8,0-5.4,1-7.5,2.9c-0.4,0.4-0.4,1-0.1,1.4c0.4,0.4,1,0.4,1.4,0.1c1.7-1.5,3.8-2.4,6.1-2.4s4.4,0.9,6.1,2.4    c0.2,0.2,0.4,0.3,0.7,0.3c0.3,0,0.5-0.1,0.7-0.3c0.4-0.4,0.4-1-0.1-1.4C37.4,20,34.8,19,32,19z"/>
<path d="M32,15c-3.8,0-7.4,1.4-10.2,4c-0.4,0.4-0.4,1-0.1,1.4c0.4,0.4,1,0.4,1.4,0.1c2.4-2.2,5.5-3.5,8.8-3.5s6.4,1.2,8.8,3.5    c0.2,0.2,0.4,0.3,0.7,0.3c0.3,0,0.5-0.1,0.7-0.3c0.4-0.4,0.4-1-0.1-1.4C39.4,16.4,35.8,15,32,15z"/>
<path d="M32,7c0.6,0,1-0.4,1-1V4c0-0.6-0.4-1-1-1s-1,0.4-1,1v2C31,6.6,31.4,7,32,7z"/>
<path d="M53,24h-2c-0.6,0-1,0.4-1,1s0.4,1,1,1h2c0.6,0,1-0.4,1-1S53.6,24,53,24z"/>
<path d="M13,24h-2c-0.6,0-1,0.4-1,1s0.4,1,1,1h2c0.6,0,1-0.4,1-1S13.6,24,13,24z"/>
<path d="M45.4,12.6c0.3,0,0.5-0.1,0.7-0.3l1.4-1.4c0.4-0.4,0.4-1,0-1.4s-1-0.4-1.4,0l-1.4,1.4c-0.4,0.4-0.4,1,0,1.4    C44.9,12.5,45.2,12.6,45.4,12.6z"/>
<path d="M17.9,37.7l-1.4,1.4c-0.4,0.4-0.4,1,0,1.4c0.2,0.2,0.5,0.3,0.7,0.3s0.5-0.1,0.7-0.3l1.4-1.4c0.4-0.4,0.4-1,0-1.4    S18.2,37.3,17.9,37.7z"/>
<path d="M46.1,37.7c-0.4-0.4-1-0.4-1.4,0s-0.4,1,0,1.4l1.4,1.4c0.2,0.2,0.5,0.3,0.7,0.3s0.5-0.1,0.7-0.3c0.4-0.4,0.4-1,0-1.4    L46.1,37.7z"/>
<path d="M17.9,12.3c0.2,0.2,0.5,0.3,0.7,0.3s0.5-0.1,0.7-0.3c0.4-0.4,0.4-1,0-1.4l-1.4-1.4c-0.4-0.4-1-0.4-1.4,0s-0.4,1,0,1.4    L17.9,12.3z"/>
</g>
</g>
<g id="headphone"/>
<g id="headset"/>
<g id="mouse"/>
<g id="wireless_chip"/>
<g id="gamepad"/>
<g id="wireless_charge"/>
<g id="camera"/>
<g id="printer"/>
<g id="laptop"/>
<g id="smartphone"/>
<g id="smartwatch"/>
<g id="speaker"/>
<g id="drone"/>
<g id="smart_plug"/>
<g id="router"/>
<g id="smart_lock"/>
<g id="air_conditioner"/>
<g id="smartglasses"/>
</svg>