<?xml version="1.0" ?>
<!-- Uploaded to: SVG Repo, www.svgrepo.com, Generator: SVG Repo Mixer Tools -->
<svg fill="#000000" width="800px" height="800px" viewBox="0 0 64 64" version="1.1" xml:space="preserve" xmlns="http://www.w3.org/2000/svg" xmlns:xlink="http://www.w3.org/1999/xlink">
<g id="cctv"/>
<g id="smartlamp"/>
<g id="headphone"/>
<g id="headset"/>
<g id="mouse"/>
<g id="wireless_chip"/>
<g id="gamepad"/>
<g id="wireless_charge"/>
<g id="camera"/>
<g id="printer"/>
<g id="laptop"/>
<g id="smartphone"/>
<g id="smartwatch"/>
<g id="speaker"/>
<g id="drone"/>
<g id="smart_plug"/>
<g id="router"/>
<g id="smart_lock"/>
<g id="air_conditioner">
<g>
<path d="M56,11H8c-2.8,0-5,2.2-5,5v24c0,2.8,2.2,5,5,5h7h34h7c2.8,0,5-2.2,5-5V16C61,13.2,58.8,11,56,11z M17,43l1.5-2h27l1.5,2    H17z M59,40c0,1.7-1.3,3-3,3h-6.5l-2.7-3.6C46.6,39.1,46.3,39,46,39H18c-0.3,0-0.6,0.1-0.8,0.4L14.5,43H8c-1.7,0-3-1.3-3-3V16    c0-1.7,1.3-3,3-3h48c1.7,0,3,1.3,3,3V40z"/>
<path d="M32,47c-0.6,0-1,0.4-1,1v4c0,0.6,0.4,1,1,1s1-0.4,1-1v-4C33,47.4,32.6,47,32,47z"/>
<path d="M19.2,46.4l-2.8,2.8c-0.4,0.4-0.4,1,0,1.4c0.2,0.2,0.5,0.3,0.7,0.3s0.5-0.1,0.7-0.3l2.8-2.8c0.4-0.4,0.4-1,0-1.4    C20.2,46,19.6,46,19.2,46.4z"/>
<path d="M44.9,46.5c-0.4-0.4-1-0.4-1.4,0c-0.4,0.4-0.4,1,0,1.4l2.8,2.8c0.2,0.2,0.5,0.3,0.7,0.3s0.5-0.1,0.7-0.3    c0.4-0.4,0.4-1,0-1.4L44.9,46.5z"/>
<path d="M32,23c-1.7,0-3,1.3-3,3s1.3,3,3,3s3-1.3,3-3S33.7,23,32,23z M32,27c-0.6,0-1-0.4-1-1s0.4-1,1-1s1,0.4,1,1S32.6,27,32,27z    "/>
<path d="M28.3,21c-0.4-0.4-1-0.3-1.4,0.1C25.7,22.4,25,24.2,25,26c0,1.9,0.7,3.6,1.9,4.9c0.2,0.2,0.5,0.3,0.7,0.3    c0.2,0,0.5-0.1,0.7-0.3c0.4-0.4,0.4-1,0.1-1.4c-0.9-1-1.3-2.2-1.3-3.6s0.5-2.6,1.3-3.6C28.7,22,28.7,21.4,28.3,21z"/>
<path d="M23,26c0-2.4,0.9-4.7,2.4-6.5c0.4-0.4,0.3-1-0.1-1.4c-0.4-0.4-1-0.3-1.4,0.1C22,20.3,21,23.1,21,26c0,2.9,1,5.7,2.9,7.8    c0.2,0.2,0.5,0.3,0.8,0.3c0.2,0,0.5-0.1,0.7-0.2c0.4-0.4,0.5-1,0.1-1.4C23.9,30.7,23,28.4,23,26z"/>
<path d="M19,26c0-3.5,1.2-6.8,3.5-9.3c0.4-0.4,0.3-1-0.1-1.4c-0.4-0.4-1-0.3-1.4,0.1c-2.6,2.9-4,6.7-4,10.6c0,4,1.4,7.7,4,10.6    c0.2,0.2,0.5,0.3,0.8,0.3c0.2,0,0.5-0.1,0.7-0.2c0.4-0.4,0.5-1,0.1-1.4C20.2,32.8,19,29.5,19,26z"/>
<path d="M37.1,21.1c-0.4-0.4-1-0.4-1.4-0.1c-0.4,0.4-0.4,1-0.1,1.4c0.9,1,1.3,2.2,1.3,3.6s-0.5,2.6-1.3,3.6    c-0.4,0.4-0.3,1,0.1,1.4c0.2,0.2,0.4,0.3,0.7,0.3c0.3,0,0.5-0.1,0.7-0.3c1.2-1.3,1.9-3.1,1.9-4.9C39,24.2,38.3,22.4,37.1,21.1z"/>
<path d="M40.1,18.2c-0.4-0.4-1-0.5-1.4-0.1c-0.4,0.4-0.5,1-0.1,1.4c1.6,1.8,2.4,4.1,2.4,6.5c0,2.4-0.9,4.7-2.4,6.5    c-0.4,0.4-0.3,1,0.1,1.4c0.2,0.2,0.4,0.2,0.7,0.2c0.3,0,0.6-0.1,0.8-0.3C42,31.7,43,28.9,43,26C43,23.1,42,20.3,40.1,18.2z"/>
<path d="M41.6,15.3c-0.4,0.4-0.5,1-0.1,1.4c2.2,2.6,3.5,5.9,3.5,9.3c0,3.5-1.2,6.8-3.5,9.3c-0.4,0.4-0.3,1,0.1,1.4    c0.2,0.2,0.4,0.2,0.7,0.2c0.3,0,0.6-0.1,0.8-0.3c2.6-2.9,4-6.7,4-10.6c0-4-1.4-7.7-4-10.6C42.7,14.9,42,14.9,41.6,15.3z"/>
</g>
</g>
<g id="smartglasses"/>
</svg>