<?xml version="1.0" ?>
<!-- Uploaded to: SVG Repo, www.svgrepo.com, Generator: SVG Repo Mixer Tools -->
<svg fill="#000000" width="800px" height="800px" viewBox="0 0 64 64" version="1.1" xml:space="preserve" xmlns="http://www.w3.org/2000/svg" xmlns:xlink="http://www.w3.org/1999/xlink">
<g id="cctv"/>
<g id="smartlamp"/>
<g id="headphone"/>
<g id="headset"/>
<g id="mouse"/>
<g id="wireless_chip"/>
<g id="gamepad"/>
<g id="wireless_charge"/>
<g id="camera"/>
<g id="printer"/>
<g id="laptop">
<g>
<path d="M55,43V13c0-0.6-0.4-1-1-1H10c-0.6,0-1,0.4-1,1v30c0,0.6,0.4,1,1,1h44C54.6,44,55,43.6,55,43z M53,42H11V14h42V42z"/>
<path d="M60,46h-1V11c0-1.7-1.3-3-3-3H8c-1.7,0-3,1.3-3,3v35H4c-0.6,0-1,0.4-1,1v3c0,3.3,2.7,6,6,6h46c3.3,0,6-2.7,6-6v-3    C61,46.4,60.6,46,60,46z M7,11c0-0.6,0.4-1,1-1h48c0.6,0,1,0.4,1,1v35H40H24H7V11z M25,48h14v1c0,0.6-0.4,1-1,1H26    c-0.6,0-1-0.4-1-1V48z M59,50c0,2.2-1.8,4-4,4H9c-2.2,0-4-1.8-4-4v-2h1h17v1c0,1.7,1.3,3,3,3h12c1.7,0,3-1.3,3-3v-1h17h1V50z"/>
</g>
</g>
<g id="smartphone"/>
<g id="smartwatch"/>
<g id="speaker"/>
<g id="drone"/>
<g id="smart_plug"/>
<g id="router"/>
<g id="smart_lock"/>
<g id="air_conditioner"/>
<g id="smartglasses"/>
</svg>