<?xml version="1.0" ?>
<!-- Uploaded to: SVG Repo, www.svgrepo.com, Generator: SVG Repo Mixer Tools -->
<svg fill="#000000" width="800px" height="800px" viewBox="0 0 64 64" version="1.1" xml:space="preserve" xmlns="http://www.w3.org/2000/svg" xmlns:xlink="http://www.w3.org/1999/xlink">
<g id="cctv"/>
<g id="smartlamp"/>
<g id="headphone"/>
<g id="headset"/>
<g id="mouse">
<g>
<path d="M44.2,7l-20-4c-0.1,0-0.3,0-0.4,0l-20,4C3.3,7.1,3,7.5,3,8v27.6c0,12.3,8.7,23,20.8,25.4c0.1,0,0.1,0,0.2,0s0.1,0,0.2,0    C36.3,58.6,45,47.9,45,35.6V8C45,7.5,44.7,7.1,44.2,7z M24,5l6,1.2v9.5c-1.5-1.7-3.6-2.7-6-2.7s-4.5,1.1-6,2.7V6.2L24,5z M21,37    c-1.7,0-3-1.4-3-3v-3.7c1.5,1.7,3.6,2.7,6,2.7s4.5-1.1,6-2.7V34c0,1.6-1.3,3-3,3H21z M30,25c0,3.3-2.7,6-6,6s-6-2.7-6-6v-4    c0-3.3,2.7-6,6-6s6,2.7,6,6V25z M43,35.6c0,11.3-8,21.1-19,23.4C13,56.7,5,46.9,5,35.6V8.8l11-2.2V21v4v9c0,2.8,2.3,5,5,5h2v7    c0,0.6,0.4,1,1,1s1-0.4,1-1v-7h2c2.7,0,5-2.2,5-5v-9v-4V6.6l11,2.2V35.6z"/>
<path d="M60,31v-7c0-0.6-0.4-1-1-1H49c-0.6,0-1,0.4-1,1v7c-0.6,0-1,0.4-1,1v8c0,0.6,0.4,1,1,1h12c0.6,0,1-0.4,1-1v-8    C61,31.4,60.6,31,60,31z M50,25h8v6h-8V25z M59,39H49v-6h10V39z"/>
<path d="M52,26c-0.6,0-1,0.4-1,1v2c0,0.6,0.4,1,1,1s1-0.4,1-1v-2C53,26.4,52.6,26,52,26z"/>
<path d="M56,26c-0.6,0-1,0.4-1,1v2c0,0.6,0.4,1,1,1s1-0.4,1-1v-2C57,26.4,56.6,26,56,26z"/>
</g>
</g>
<g id="wireless_chip"/>
<g id="gamepad"/>
<g id="wireless_charge"/>
<g id="camera"/>
<g id="printer"/>
<g id="laptop"/>
<g id="smartphone"/>
<g id="smartwatch"/>
<g id="speaker"/>
<g id="drone"/>
<g id="smart_plug"/>
<g id="router"/>
<g id="smart_lock"/>
<g id="air_conditioner"/>
<g id="smartglasses"/>
</svg>