<?xml version="1.0" ?>
<!-- Uploaded to: SVG Repo, www.svgrepo.com, Generator: SVG Repo Mixer Tools -->
<svg fill="#000000" width="800px" height="800px" viewBox="0 0 64 64" version="1.1" xml:space="preserve" xmlns="http://www.w3.org/2000/svg" xmlns:xlink="http://www.w3.org/1999/xlink">
<g id="cctv">
<g>
<path d="M56,55.2c-0.3-5.4-4-10-9.2-11.6C51.8,39.4,55,33,55,26C55,13.3,44.7,3,32,3S9,13.3,9,26c0,7,3.2,13.3,8.2,17.6    c-2,0.6-3.8,1.7-5.4,3.2C9.5,49.1,8.2,52,8,55.2c-1.2,0.4-2,1.5-2,2.8v2c0,0.6,0.4,1,1,1h50c0.6,0,1-0.4,1-1v-2    C58,56.7,57.1,55.6,56,55.2z M32,34c6.6,0,12-5.4,12-12v-5c1.9,2.6,3,5.7,3,9c0,8.3-6.7,15-15,15s-15-6.7-15-15c0-3.3,1.1-6.4,3-9    v5C20,28.6,25.4,34,32,34z M42,7.5V22c0,5.5-4.5,10-10,10s-10-4.5-10-10V7.5C25,5.9,28.4,5,32,5S39,5.9,42,7.5z M11,26    c0-7.1,3.6-13.4,9-17.2V14c-3.2,3.2-5,7.4-5,12c0,9.4,7.6,17,17,17s17-7.6,17-17c0-4.6-1.8-8.8-5-12V8.8c5.4,3.8,9,10.1,9,17.2    c0,11.6-9.4,21-21,21S11,37.6,11,26z M13.2,48.2c1.7-1.7,3.8-2.7,6.1-3.1c3.6,2.4,8,3.9,12.7,3.9c4.7,0,9.1-1.4,12.7-3.9    c5,0.8,8.8,4.9,9.2,9.9H10C10.3,52.4,11.4,50.1,13.2,48.2z M56,59H8v-1c0-0.6,0.4-1,1-1h46c0.6,0,1,0.4,1,1V59z"/>
<path d="M32,28c3.9,0,7-3.1,7-7s-3.1-7-7-7s-7,3.1-7,7S28.1,28,32,28z M32,16c2.8,0,5,2.2,5,5s-2.2,5-5,5s-5-2.2-5-5    S29.2,16,32,16z"/>
<path d="M32,20c0.6,0,1,0.4,1,1c0,0.6,0.4,1,1,1s1-0.4,1-1c0-1.7-1.3-3-3-3c-0.6,0-1,0.4-1,1S31.4,20,32,20z"/>
</g>
</g>
<g id="smartlamp"/>
<g id="headphone"/>
<g id="headset"/>
<g id="mouse"/>
<g id="wireless_chip"/>
<g id="gamepad"/>
<g id="wireless_charge"/>
<g id="camera"/>
<g id="printer"/>
<g id="laptop"/>
<g id="smartphone"/>
<g id="smartwatch"/>
<g id="speaker"/>
<g id="drone"/>
<g id="smart_plug"/>
<g id="router"/>
<g id="smart_lock"/>
<g id="air_conditioner"/>
<g id="smartglasses"/>
</svg>