<?xml version="1.0" ?>
<!-- Uploaded to: SVG Repo, www.svgrepo.com, Generator: SVG Repo Mixer Tools -->
<svg fill="#000000" width="800px" height="800px" viewBox="0 0 64 64" version="1.1" xml:space="preserve" xmlns="http://www.w3.org/2000/svg" xmlns:xlink="http://www.w3.org/1999/xlink">
<g id="cctv"/>
<g id="smartlamp"/>
<g id="headphone"/>
<g id="headset"/>
<g id="mouse"/>
<g id="wireless_chip"/>
<g id="gamepad"/>
<g id="wireless_charge"/>
<g id="camera"/>
<g id="printer"/>
<g id="laptop"/>
<g id="smartphone"/>
<g id="smartwatch">
<g>
<path d="M60,15h-3.8l-3.3-1.7C52.6,12,51.4,11,50,11H14c-1.4,0-2.6,1-2.9,2.3L7.8,15H4c-0.6,0-1,0.4-1,1v32c0,0.6,0.4,1,1,1h3.8    l3.3,1.7C11.4,52,12.6,53,14,53h36c1.4,0,2.6-1,2.9-2.3l3.3-1.7H60c0.6,0,1-0.4,1-1V16C61,15.4,60.6,15,60,15z M5,17h2v30H5V17z     M9,16.6l2-1v32.8l-2-1V16.6z M50,51H14c-0.6,0-1-0.4-1-1V14c0-0.6,0.4-1,1-1h36c0.6,0,1,0.4,1,1v36C51,50.6,50.6,51,50,51z     M53,15.6l2,1v30.8l-2,1V15.6z M59,47h-2V17h2V47z"/>
<path d="M32,19c0.6,0,1-0.4,1-1v-2c0-0.6-0.4-1-1-1s-1,0.4-1,1v2C31,18.6,31.4,19,32,19z"/>
<path d="M32,45c-0.6,0-1,0.4-1,1v2c0,0.6,0.4,1,1,1s1-0.4,1-1v-2C33,45.4,32.6,45,32,45z"/>
<path d="M48,31h-2c-0.6,0-1,0.4-1,1s0.4,1,1,1h2c0.6,0,1-0.4,1-1S48.6,31,48,31z"/>
<path d="M18,31h-2c-0.6,0-1,0.4-1,1s0.4,1,1,1h2c0.6,0,1-0.4,1-1S18.6,31,18,31z"/>
<path d="M43,31h-8.2c-0.3-0.8-1-1.5-1.8-1.8V24c0-0.6-0.4-1-1-1s-1,0.4-1,1v5.2c-1.2,0.4-2,1.5-2,2.8c0,1.7,1.3,3,3,3    c1.3,0,2.4-0.8,2.8-2H43c0.6,0,1-0.4,1-1S43.6,31,43,31z M32,33c-0.6,0-1-0.4-1-1s0.4-1,1-1s1,0.4,1,1S32.6,33,32,33z"/>
</g>
</g>
<g id="speaker"/>
<g id="drone"/>
<g id="smart_plug"/>
<g id="router"/>
<g id="smart_lock"/>
<g id="air_conditioner"/>
<g id="smartglasses"/>
</svg>