<?xml version="1.0" ?>
<!-- Uploaded to: SVG Repo, www.svgrepo.com, Generator: SVG Repo Mixer Tools -->
<svg fill="#000000" width="800px" height="800px" viewBox="0 0 64 64" version="1.1" xml:space="preserve" xmlns="http://www.w3.org/2000/svg" xmlns:xlink="http://www.w3.org/1999/xlink">
<g id="cctv"/>
<g id="smartlamp"/>
<g id="headphone"/>
<g id="headset"/>
<g id="mouse"/>
<g id="wireless_chip"/>
<g id="gamepad"/>
<g id="wireless_charge"/>
<g id="camera"/>
<g id="printer"/>
<g id="laptop"/>
<g id="smartphone"/>
<g id="smartwatch"/>
<g id="speaker"/>
<g id="drone">
<path d="M48,35c-1.4,0-2.7,0.2-4,0.6c-0.7-2.4-0.7-4.9,0-7.2c1.3,0.4,2.6,0.6,4,0.6c7.2,0,13-5.8,13-13S55.2,3,48,3S35,8.8,35,16   c0,1,0.1,2,0.4,3c-2.2,0.6-4.5,0.6-6.7,0c0.2-1,0.4-2,0.4-3c0-7.2-5.8-13-13-13S3,8.8,3,16s5.8,13,13,13c1.4,0,2.7-0.2,3.9-0.6   c0.7,2.4,0.7,4.9,0,7.2C18.7,35.2,17.4,35,16,35C8.8,35,3,40.8,3,48s5.8,13,13,13s13-5.8,13-13c0-1-0.1-2-0.4-3   c2.2-0.6,4.5-0.6,6.7,0c-0.2,1-0.4,2-0.4,3c0,7.2,5.8,13,13,13s13-5.8,13-13S55.2,35,48,35z M48,5c6.1,0,11,4.9,11,11   s-4.9,11-11,11c-1.1,0-2.2-0.2-3.3-0.5c0.8-1.7,1.9-3.3,3.4-4.5c3.3,0,5.9-2.7,5.9-6c0-3.3-2.7-6-6-6c-2.9,0-5.3,2.1-5.9,4.8   c-1.3,1.6-3,2.8-4.9,3.6C37.1,17.6,37,16.8,37,16C37,9.9,41.9,5,48,5z M48,12c2.2,0,4,1.8,4,4s-1.8,4-4,4s-4-1.8-4-4S45.8,12,48,12   z M5,16C5,9.9,9.9,5,16,5s11,4.9,11,11c0,0.8-0.1,1.6-0.3,2.4c-1.9-0.8-3.6-2-4.9-3.6c-0.6-2.7-3-4.8-5.9-4.8c-3.3,0-6,2.7-6,6   c0,3.3,2.6,5.9,5.9,6c1.4,1.2,2.6,2.8,3.4,4.5c-1,0.3-2.1,0.5-3.3,0.5C9.9,27,5,22.1,5,16z M16,20c-2.2,0-4-1.8-4-4s1.8-4,4-4   s4,1.8,4,4S18.2,20,16,20z M16,59C9.9,59,5,54.1,5,48s4.9-11,11-11c1.1,0,2.2,0.2,3.3,0.5c-0.8,1.7-1.9,3.3-3.4,4.5   c-3.3,0.1-5.9,2.7-5.9,6c0,3.3,2.7,6,6,6c2.9,0,5.3-2.1,5.9-4.8c1.3-1.6,3-2.8,4.9-3.6c0.2,0.8,0.3,1.6,0.3,2.4   C27,54.1,22.1,59,16,59z M16,52c-2.2,0-4-1.8-4-4s1.8-4,4-4s4,1.8,4,4S18.2,52,16,52z M27.1,43.3c-2,0.7-3.8,1.7-5.3,3.1   c-0.5-1.8-1.8-3.2-3.5-4c1.4-1.5,2.5-3.2,3.2-5.2c0,0,0,0,0,0c0,0,0,0,0,0c0,0,0,0,0,0c1.2-3.4,1.2-7.1,0-10.5c0,0,0,0,0,0   c0,0,0,0,0,0c0,0,0,0,0,0c-0.7-1.9-1.8-3.7-3.2-5.2c1.7-0.7,3-2.2,3.5-4c1.5,1.4,3.3,2.4,5.3,3.1c1.6,0.5,3.2,0.8,4.9,0.8   s3.3-0.3,4.9-0.8c2-0.7,3.8-1.7,5.3-3.1c0.5,1.8,1.8,3.2,3.4,4c-1.4,1.5-2.5,3.2-3.2,5.2c0,0,0,0,0,0c0,0,0,0,0,0c0,0,0,0,0,0   c-1.2,3.4-1.2,7.1,0,10.5c0,0,0,0,0,0c0,0,0,0,0,0c0,0,0,0,0,0c0.7,1.9,1.8,3.7,3.2,5.2c-1.7,0.7-3,2.2-3.4,4   c-1.5-1.4-3.3-2.4-5.3-3.1c0,0,0,0,0,0c0,0,0,0,0,0c0,0,0,0,0,0C33.7,42.3,30.3,42.3,27.1,43.3z M44,48c0-2.2,1.8-4,4-4s4,1.8,4,4   s-1.8,4-4,4S44,50.2,44,48z M48,59c-6.1,0-11-4.9-11-11c0-0.8,0.1-1.6,0.3-2.4c1.9,0.8,3.6,2,4.9,3.6c0.6,2.7,3,4.8,5.9,4.8   c3.3,0,6-2.7,6-6c0-3.3-2.6-5.9-5.9-6c-1.4-1.2-2.6-2.8-3.4-4.5c1-0.3,2.1-0.5,3.3-0.5c6.1,0,11,4.9,11,11S54.1,59,48,59z"/>
</g>
<g id="smart_plug"/>
<g id="router"/>
<g id="smart_lock"/>
<g id="air_conditioner"/>
<g id="smartglasses"/>
</svg>