<?xml version="1.0" ?>
<!-- Uploaded to: SVG Repo, www.svgrepo.com, Generator: SVG Repo Mixer Tools -->
<svg fill="#000000" width="800px" height="800px" viewBox="0 0 64 64" version="1.1" xml:space="preserve" xmlns="http://www.w3.org/2000/svg" xmlns:xlink="http://www.w3.org/1999/xlink">
<g id="cctv"/>
<g id="smartlamp"/>
<g id="headphone"/>
<g id="headset"/>
<g id="mouse"/>
<g id="wireless_chip"/>
<g id="gamepad"/>
<g id="wireless_charge"/>
<g id="camera">
<g>
<path d="M53,11h-1.3c-1.2,0-2.4-0.8-2.8-1.9l-1.1-2.8C47.2,4.3,45.3,3,43.2,3H20.8c-2.1,0-3.9,1.3-4.7,3.2L15,9.1    c-0.4,1.2-1.6,1.9-2.8,1.9H11c-2.7,0-5,2.2-5,5v40c0,2.7,2.2,5,5,5h42c2.7,0,5-2.2,5-5V16C58,13.2,55.8,11,53,11z M56,56    c0,1.6-1.3,3-3,3H11c-1.6,0-3-1.3-3-3V16c0-1.6,1.3-3,3-3h1.3c2.1,0,3.9-1.3,4.7-3.2L18,6.9C18.4,5.8,19.5,5,20.8,5h22.5    c1.2,0,2.4,0.8,2.8,1.9l1.1,2.8c0.7,1.9,2.6,3.2,4.7,3.2H53c1.6,0,3,1.3,3,3V56z"/>
<path d="M32,45c9.4,0,17-7.6,17-17s-7.6-17-17-17s-17,7.6-17,17S22.6,45,32,45z M32,13c8.3,0,15,6.7,15,15s-6.7,15-15,15    s-15-6.7-15-15S23.7,13,32,13z"/>
<path d="M32,40c6.6,0,12-5.4,12-12s-5.4-12-12-12s-12,5.4-12,12S25.4,40,32,40z M32,18c5.5,0,10,4.5,10,10s-4.5,10-10,10    s-10-4.5-10-10S26.5,18,32,18z"/>
<path d="M32,23c2.8,0,5,2.2,5,5c0,0.6,0.4,1,1,1s1-0.4,1-1c0-3.9-3.1-7-7-7c-0.6,0-1,0.4-1,1S31.4,23,32,23z"/>
<path d="M50,48H14c-1.7,0-3,1.3-3,3v2c0,1.7,1.3,3,3,3h36c1.7,0,3-1.3,3-3v-2C53,49.3,51.7,48,50,48z M51,53c0,0.6-0.4,1-1,1H14    c-0.6,0-1-0.4-1-1v-2c0-0.6,0.4-1,1-1h36c0.6,0,1,0.4,1,1V53z"/>
</g>
</g>
<g id="printer"/>
<g id="laptop"/>
<g id="smartphone"/>
<g id="smartwatch"/>
<g id="speaker"/>
<g id="drone"/>
<g id="smart_plug"/>
<g id="router"/>
<g id="smart_lock"/>
<g id="air_conditioner"/>
<g id="smartglasses"/>
</svg>