<?xml version="1.0" ?>
<!-- Uploaded to: SVG Repo, www.svgrepo.com, Generator: SVG Repo Mixer Tools -->
<svg fill="#000000" width="800px" height="800px" viewBox="0 0 64 64" version="1.1" xml:space="preserve" xmlns="http://www.w3.org/2000/svg" xmlns:xlink="http://www.w3.org/1999/xlink">
<g id="cctv"/>
<g id="smartlamp"/>
<g id="headphone"/>
<g id="headset"/>
<g id="mouse"/>
<g id="wireless_chip"/>
<g id="gamepad"/>
<g id="wireless_charge"/>
<g id="camera"/>
<g id="printer"/>
<g id="laptop"/>
<g id="smartphone">
<g>
<path d="M52,3H24c-0.2,0-0.4,0-0.7,0.1C23.2,3,23.1,3,23,3H12C9.2,3,7,5.2,7,8v48c0,2.8,2.2,5,5,5h12h28c2.8,0,5-2.2,5-5V8    C57,5.2,54.8,3,52,3z M9,56V8c0-1.7,1.3-3,3-3h8c-0.6,0.8-1,1.9-1,3v48c0,1.1,0.4,2.2,1,3h-8C10.3,59,9,57.7,9,56z M55,56    c0,1.7-1.3,3-3,3H24c-1.7,0-3-1.3-3-3V8c0-1.7,1.3-3,3-3h28c1.7,0,3,1.3,3,3V56z"/>
<path d="M50,7H26c-1.7,0-3,1.3-3,3v44c0,1.7,1.3,3,3,3h24c1.7,0,3-1.3,3-3V10C53,8.3,51.7,7,50,7z M51,54c0,0.6-0.4,1-1,1H26    c-0.6,0-1-0.4-1-1V10c0-0.6,0.4-1,1-1h24c0.6,0,1,0.4,1,1V54z"/>
<path d="M14,8c-1.7,0-3,1.3-3,3v8c0,1.7,1.3,3,3,3s3-1.3,3-3v-8C17,9.3,15.7,8,14,8z M15,19c0,0.6-0.4,1-1,1s-1-0.4-1-1v-8    c0-0.6,0.4-1,1-1s1,0.4,1,1V19z"/>
<path d="M14,24c-1.7,0-3,1.3-3,3s1.3,3,3,3s3-1.3,3-3S15.7,24,14,24z M14,28c-0.6,0-1-0.4-1-1s0.4-1,1-1s1,0.4,1,1S14.6,28,14,28z    "/>
<path d="M46.3,26.8l-18,18c-0.4,0.4-0.4,1,0,1.4c0.2,0.2,0.5,0.3,0.7,0.3s0.5-0.1,0.7-0.3l18-18c0.4-0.4,0.4-1,0-1.4    S46.7,26.4,46.3,26.8z"/>
<path d="M46.3,17.8l-18,18c-0.4,0.4-0.4,1,0,1.4c0.2,0.2,0.5,0.3,0.7,0.3s0.5-0.1,0.7-0.3l18-18c0.4-0.4,0.4-1,0-1.4    S46.7,17.4,46.3,17.8z"/>
</g>
</g>
<g id="smartwatch"/>
<g id="speaker"/>
<g id="drone"/>
<g id="smart_plug"/>
<g id="router"/>
<g id="smart_lock"/>
<g id="air_conditioner"/>
<g id="smartglasses"/>
</svg>