<?xml version="1.0" ?>
<!-- Uploaded to: SVG Repo, www.svgrepo.com, Generator: SVG Repo Mixer Tools -->
<svg fill="#000000" width="800px" height="800px" viewBox="0 0 64 64" version="1.1" xml:space="preserve" xmlns="http://www.w3.org/2000/svg" xmlns:xlink="http://www.w3.org/1999/xlink">
<g id="cctv"/>
<g id="smartlamp"/>
<g id="headphone"/>
<g id="headset"/>
<g id="mouse"/>
<g id="wireless_chip"/>
<g id="gamepad">
<g>
<path d="M60.9,49.3l-4.9-26.2c-0.4-2.1-2-3.6-4.1-4V18c0-1.7-1.3-3-3-3h-2c-1.7,0-3,1.3-3,3v1H33v-4.1c1.7-0.4,3-2,3-3.9    c0-2.2-1.8-4-4-4s-4,1.8-4,4c0,1.9,1.3,3.4,3,3.9V19H20v-1c0-1.7-1.3-3-3-3h-2c-1.7,0-3,1.3-3,3v1.1c-2,0.4-3.7,1.9-4.1,4    L3.1,49.3c-0.5,2.4,1,4.8,3.4,5.6l5.9,1.9c0.5,0.2,1.1,0.3,1.6,0.3c1.7,0,3.3-0.8,4.3-2.3l5.3-7.8h17.2l5.1,7.8    c1.3,1.9,3.7,2.7,5.9,2l5.9-1.9C59.9,54.1,61.4,51.7,60.9,49.3z M30,11c0-1.1,0.9-2,2-2s2,0.9,2,2s-0.9,2-2,2S30,12.1,30,11z     M46,18c0-0.6,0.4-1,1-1h2c0.6,0,1,0.4,1,1v1h-4V18z M14,18c0-0.6,0.4-1,1-1h2c0.6,0,1,0.4,1,1v1h-4V18z M56.9,53L51,54.9    c-1.3,0.4-2.8-0.1-3.6-1.2l-5.4-8.2c-0.2-0.3-0.5-0.5-0.8-0.5H23c-0.3,0-0.6,0.2-0.8,0.4l-5.7,8.2c-0.8,1.2-2.2,1.7-3.6,1.2    L7.1,53c-1.4-0.5-2.3-1.9-2-3.3l4.9-26.2c0.3-1.4,1.5-2.4,3-2.4H13h6h26h6h0.1c1.5,0,2.8,1,3,2.4L59,49.6    C59.2,51.1,58.4,52.5,56.9,53z"/>
<path d="M20,26c-3.9,0-7,3.1-7,7s3.1,7,7,7s7-3.1,7-7S23.9,26,20,26z M20,38c-2.8,0-5-2.2-5-5s2.2-5,5-5s5,2.2,5,5S22.8,38,20,38z    "/>
<path d="M44,26c-3.9,0-7,3.1-7,7s3.1,7,7,7s7-3.1,7-7S47.9,26,44,26z M44,38c-2.8,0-5-2.2-5-5s2.2-5,5-5s5,2.2,5,5S46.8,38,44,38z    "/>
</g>
</g>
<g id="wireless_charge"/>
<g id="camera"/>
<g id="printer"/>
<g id="laptop"/>
<g id="smartphone"/>
<g id="smartwatch"/>
<g id="speaker"/>
<g id="drone"/>
<g id="smart_plug"/>
<g id="router"/>
<g id="smart_lock"/>
<g id="air_conditioner"/>
<g id="smartglasses"/>
</svg>