<?xml version="1.0" ?>
<!-- Uploaded to: SVG Repo, www.svgrepo.com, Generator: SVG Repo Mixer Tools -->
<svg fill="#000000" width="800px" height="800px" viewBox="0 0 64 64" version="1.1" xml:space="preserve" xmlns="http://www.w3.org/2000/svg" xmlns:xlink="http://www.w3.org/1999/xlink">
<g id="cctv"/>
<g id="smartlamp"/>
<g id="headphone"/>
<g id="headset"/>
<g id="mouse"/>
<g id="wireless_chip">
<g>
<path d="M32,35c-1.7,0-3,1.3-3,3s1.3,3,3,3s3-1.3,3-3S33.7,35,32,35z M32,39c-0.6,0-1-0.4-1-1s0.4-1,1-1s1,0.4,1,1S32.6,39,32,39z    "/>
<path d="M32,31c-1.8,0-3.5,0.7-4.7,1.9c-0.4,0.4-0.4,1,0,1.4c0.4,0.4,1,0.4,1.4,0c0.9-0.9,2.1-1.3,3.4-1.3s2.5,0.5,3.4,1.3    c0.2,0.2,0.4,0.3,0.7,0.3c0.3,0,0.5-0.1,0.7-0.3c0.4-0.4,0.4-1,0-1.4C35.5,31.7,33.8,31,32,31z"/>
<path d="M32,27c-2.8,0-5.4,1-7.5,2.9c-0.4,0.4-0.4,1-0.1,1.4c0.4,0.4,1,0.4,1.4,0.1c1.7-1.5,3.8-2.4,6.1-2.4s4.4,0.9,6.1,2.4    c0.2,0.2,0.4,0.3,0.7,0.3c0.3,0,0.5-0.1,0.7-0.3c0.4-0.4,0.4-1-0.1-1.4C37.4,28,34.8,27,32,27z"/>
<path d="M32,23c-3.8,0-7.4,1.4-10.2,4c-0.4,0.4-0.4,1-0.1,1.4c0.4,0.4,1,0.4,1.4,0.1c2.4-2.2,5.5-3.5,8.8-3.5s6.4,1.2,8.8,3.5    c0.2,0.2,0.4,0.3,0.7,0.3c0.3,0,0.5-0.1,0.7-0.3c0.4-0.4,0.4-1-0.1-1.4C39.4,24.4,35.8,23,32,23z"/>
<path d="M55.2,33c0.4,1.2,1.5,2,2.8,2c1.7,0,3-1.3,3-3s-1.3-3-3-3c-1.3,0-2.4,0.8-2.8,2H49v-4h3c0.6,0,1-0.4,1-1v-3h2.2    c0.4,1.2,1.5,2,2.8,2c1.7,0,3-1.3,3-3s-1.3-3-3-3c-1.3,0-2.4,0.8-2.8,2H52c-0.6,0-1,0.4-1,1v3h-2v-7c0-1.7-1.3-3-3-3h-7v-2h3    c0.6,0,1-0.4,1-1V8.8c1.2-0.4,2-1.5,2-2.8c0-1.7-1.3-3-3-3s-3,1.3-3,3c0,1.3,0.8,2.4,2,2.8V11h-3c-0.6,0-1,0.4-1,1v3h-4V8.8    c1.2-0.4,2-1.5,2-2.8c0-1.7-1.3-3-3-3s-3,1.3-3,3c0,1.3,0.8,2.4,2,2.8V15h-4v-3c0-0.6-0.4-1-1-1h-3V8.8c1.2-0.4,2-1.5,2-2.8    c0-1.7-1.3-3-3-3s-3,1.3-3,3c0,1.3,0.8,2.4,2,2.8V12c0,0.6,0.4,1,1,1h3v2h-7c-1.7,0-3,1.3-3,3v7h-2v-3c0-0.6-0.4-1-1-1H8.8    c-0.4-1.2-1.5-2-2.8-2c-1.7,0-3,1.3-3,3s1.3,3,3,3c1.3,0,2.4-0.8,2.8-2H11v3c0,0.6,0.4,1,1,1h3v4H8.8c-0.4-1.2-1.5-2-2.8-2    c-1.7,0-3,1.3-3,3s1.3,3,3,3c1.3,0,2.4-0.8,2.8-2H15v4h-3c-0.6,0-1,0.4-1,1v3H8.8c-0.4-1.2-1.5-2-2.8-2c-1.7,0-3,1.3-3,3    s1.3,3,3,3c1.3,0,2.4-0.8,2.8-2H12c0.6,0,1-0.4,1-1v-3h2v7c0,1.7,1.3,3,3,3h7v2h-3c-0.6,0-1,0.4-1,1v3.2c-1.2,0.4-2,1.5-2,2.8    c0,1.7,1.3,3,3,3s3-1.3,3-3c0-1.3-0.8-2.4-2-2.8V53h3c0.6,0,1-0.4,1-1v-3h4v6.2c-1.2,0.4-2,1.5-2,2.8c0,1.7,1.3,3,3,3s3-1.3,3-3    c0-1.3-0.8-2.4-2-2.8V49h4v3c0,0.6,0.4,1,1,1h3v2.2c-1.2,0.4-2,1.5-2,2.8c0,1.7,1.3,3,3,3s3-1.3,3-3c0-1.3-0.8-2.4-2-2.8V52    c0-0.6-0.4-1-1-1h-3v-2h7c1.7,0,3-1.3,3-3v-7h2v3c0,0.6,0.4,1,1,1h3.2c0.4,1.2,1.5,2,2.8,2c1.7,0,3-1.3,3-3s-1.3-3-3-3    c-1.3,0-2.4,0.8-2.8,2H53v-3c0-0.6-0.4-1-1-1h-3v-4H55.2z M58,31c0.6,0,1,0.4,1,1s-0.4,1-1,1s-1-0.4-1-1S57.4,31,58,31z M58,21    c0.6,0,1,0.4,1,1s-0.4,1-1,1s-1-0.4-1-1S57.4,21,58,21z M42,5c0.6,0,1,0.4,1,1s-0.4,1-1,1s-1-0.4-1-1S41.4,5,42,5z M32,5    c0.6,0,1,0.4,1,1s-0.4,1-1,1s-1-0.4-1-1S31.4,5,32,5z M22,5c0.6,0,1,0.4,1,1s-0.4,1-1,1s-1-0.4-1-1S21.4,5,22,5z M6,23    c-0.6,0-1-0.4-1-1s0.4-1,1-1s1,0.4,1,1S6.6,23,6,23z M6,33c-0.6,0-1-0.4-1-1s0.4-1,1-1s1,0.4,1,1S6.6,33,6,33z M6,43    c-0.6,0-1-0.4-1-1s0.4-1,1-1s1,0.4,1,1S6.6,43,6,43z M22,59c-0.6,0-1-0.4-1-1s0.4-1,1-1s1,0.4,1,1S22.6,59,22,59z M32,59    c-0.6,0-1-0.4-1-1s0.4-1,1-1s1,0.4,1,1S32.6,59,32,59z M42,59c-0.6,0-1-0.4-1-1s0.4-1,1-1s1,0.4,1,1S42.6,59,42,59z M58,41    c0.6,0,1,0.4,1,1s-0.4,1-1,1s-1-0.4-1-1S57.4,41,58,41z M47,46c0,0.6-0.4,1-1,1H18c-0.6,0-1-0.4-1-1V18c0-0.6,0.4-1,1-1h28    c0.6,0,1,0.4,1,1V46z"/>
</g>
</g>
<g id="gamepad"/>
<g id="wireless_charge"/>
<g id="camera"/>
<g id="printer"/>
<g id="laptop"/>
<g id="smartphone"/>
<g id="smartwatch"/>
<g id="speaker"/>
<g id="drone"/>
<g id="smart_plug"/>
<g id="router"/>
<g id="smart_lock"/>
<g id="air_conditioner"/>
<g id="smartglasses"/>
</svg>